<svg enable-background="new 0 0 390 400" viewBox="45.08 54.08 342.12 342.03" xmlns="http://www.w3.org/2000/svg" xmlns:xlink="http://www.w3.org/1999/xlink"><linearGradient id="a" gradientTransform="matrix(1 0 0 -1 0 452)" gradientUnits="userSpaceOnUse" x1="405.2469" x2="139.4631" y1="226.2997" y2="227.284"><stop offset="0" stop-color="#2994ff"/><stop offset="1" stop-color="#0033bf"/></linearGradient><linearGradient id="b"><stop offset="0" stop-color="#45a2ff"/><stop offset="1" stop-color="#2660ff"/></linearGradient><linearGradient id="c" gradientTransform="matrix(1 0 0 -1 0 452)" gradientUnits="userSpaceOnUse" x1="383.3649" x2="8.5014" xlink:href="#b" y1="227.295" y2="224.7735"/><linearGradient id="d" gradientTransform="matrix(1 0 0 -1 0 452)" gradientUnits="userSpaceOnUse" x1="360.8905" x2="68.4077" xlink:href="#b" y1="226.1261" y2="228.8343"/><path d="m387.1 225c0 26.5-21.5 48-48 48h-245.9c-26.5 0-48-21.5-48-48s21.5-48 48-48h245.9c26.5 0 48 21.5 48 48z" fill="url(#a)"/><circle cx="339.5" cy="225" fill="url(#c)" r="47.7"/><path d="m337.5 299.9h-121.4c-41.4 0-74.9-33.5-74.9-74.9s33.5-74.9 74.9-74.9h121.3c25.6 0 47.9-19.3 49.6-44.8 1.8-28-20.3-51.2-47.9-51.2h-123c-94.4 0-171 76.6-171 171s76.6 171 171 171h123c27.6 0 49.7-23.3 47.9-51.2-1.6-25.7-23.9-45-49.5-45z" fill="url(#d)"/></svg>