<?xml version="1.0" encoding="utf-8"?>
<svg viewBox="0 0 69.9989 54.0023" width="69.9989" height="54.0023" xmlns="http://www.w3.org/2000/svg">
  <path d="M0 0 C5.28 0 10.56 0 16 0 C19 11.5 19 11.5 19 16 C11.74 16 4.48 16 -3 16 C-2 7 -2 7 0 0 Z " fill="#0056D0" transform="matrix(1, 0, 0, 1, 27, -1.7763568394002505e-15)"/>
  <path d="M0 0 C5.28 0 10.56 0 16 0 C19 10.38 19 10.38 19 16 C11.74 16 4.48 16 -3 16 C-2.01 10.72 -1.02 5.44 0 0 Z " fill="#0053CC" transform="matrix(1, 0, 0, 1, 40, 18.999999999999996)"/>
  <path d="M0 0 C5.28 0 10.56 0 16 0 C17.48 7.92 17.48 7.92 19 16 C11.74 16 4.48 16 -3 16 C-2 6 -2 6 0 0 Z " fill="#0053CC" transform="matrix(1, 0, 0, 1, 13.999999999999998, 18.999999999999996)"/>
  <path d="M0 0 C5.28 0 10.56 0 16 0 C19 12.62 19 12.62 19 16 C11.74 16 4.48 16 -3 16 C-1.12 4.5 -1.12 4.5 0 0 Z " fill="#0056CF" transform="matrix(1, 0, 0, 1, 27, 38)"/>
  <path d="M0 0 C1.39 0.01 2.79 0.02 4.18 0.04 C4.89 0.04 5.61 0.04 6.34 0.05 C8.1 0.06 9.86 0.08 11.62 0.1 C13.83 5.7 13.97 9.63 14.62 16.1 C7.36 16.1 0.1 16.1 -7.38 16.1 C-6.9 13.64 -6.43 11.19 -5.94 8.66 C-5.79 7.89 -5.65 7.11 -5.49 6.31 C-4.28 0.12 -4.28 0.12 0 0 Z " fill="#0055CF" transform="matrix(1, 0, 0, 1, 55.37890624999999, 37.90234375)"/>
  <path d="M0 0 C4.95 0 9.9 0 15 0 C17 6 17 6 19 16 C11.74 16 4.48 16 -3 16 C-2 6 -2 6 0 0 Z " fill="#0055CF" transform="matrix(1, 0, 0, 1, 2.9999999999999982, 38)"/>
</svg>